# xmcd CD database file
#
# Track frame offsets:
#	150
#	14172
#	26992
#	48590
#	70180
#	86830
#	105812
#	127965
#	140877
#	175077
#	199200
#	230502
#	288212
#
# Disc length: 4310 seconds
#
# Revision: 0
# Processed by: cddbd v1.4PL0 Copyright (c) Steve Scherf et al.
# Submitted via: CDex 1.50beta10
#
DISCID=bd10d40d
DTITLE=Roy Ayers - Daddy bug (1-8) - Virgo vibes (9-13)
DYEAR=1967
DGENRE=Jazz
TTITLE0=Daddy bug
TTITLE1=Bonita
TTITLE2=This guy's in love with you
TTITLE3=I love you Michelle
TTITLE4=Shadows
TTITLE5=Emmie
TTITLE6=Look to the sky
TTITLE7=It could only happen to you
TTITLE8=The ringer
TTITLE9=Ayerloom
TTITLE10=In the limelight
TTITLE11=Virgo vibes
TTITLE12=Glow flower
EXTD=YEAR: 1967
EXTT0=
EXTT1=
EXTT2=
EXTT3=
EXTT4=
EXTT5=
EXTT6=
EXTT7=
EXTT8=
EXTT9=
EXTT10=
EXTT11=
EXTT12=
PLAYORDER=
